<svg width="120" height="120" viewBox="0 0 120 120" fill="none" xmlns="http://www.w3.org/2000/svg"><path d="M106.654 84.617h-3.346v3.475h3.346zm.257 12.097h-3.346v6.821h3.346z" fill="#B46119"/><path d="M106.911 96.714h-3.346v6.821h3.346zm-3.346 6.564h-3.346v3.475h3.346z" fill="#B46119"/><path d="M103.565 103.278h-3.346v3.475h3.346zM13.346 86.933H10v9.91h3.346zm46.461-62.677h-3.346v6.821h3.346zM40.116 29.79h3.41v6.822h-3.41z" fill="#B46119"/><path d="M36.77 36.611h3.41v6.821h-3.41zm-3.347 6.822h3.41v6.82h-3.41z" fill="#B46119"/><path d="M30.077 50.125h3.41v6.821h-3.41z" fill="#B46119"/><path d="M26.731 56.817h3.475v3.346H26.73zm16.795-30.244h3.354v6.82h-3.354zm3.347-6.821h3.346v6.82h-3.346z" fill="#B46119"/><path d="M49.769 11h3.346v10.167h-3.346zM26.731 60.035h-3.346v6.82h3.346zm-3.346 6.821h-3.346v6.692h3.346zm-3.346 6.692h-3.347v6.693h3.347zm-3.347 6.692h-3.346v6.693h3.346zm63.192-49.163h-3.346v6.05h3.346zm16.731 30.116H93.27v6.821h3.346zm3.346 6.821h-3.346v6.821h3.346zm3.347 6.693h-3.347v6.563h3.347zm3.346 6.563h-3.346v3.347h3.346zM110 84.617h-3.346v10.81H110zM40.245 55.788h3.346v7.593h-3.346z" fill="#B46119"/><path d="M43.462 50.125h3.475v6.692h-3.475zm3.411-3.475h3.346v3.475h-3.346zm3.346-3.282h3.346v3.282h-3.346zm3.411 3.411h3.346v6.692h-3.347z" fill="#B46119"/><path d="M56.847 50.125h3.475v13.256h-3.475z" fill="#B46119"/><path d="M60.193 56.817h3.475v6.564h-3.475z" fill="#B46119"/><path d="M63.668 63.38h3.346v3.476h-3.346zm3.346 3.476h3.346v6.692h-3.346zm3.346 6.692h3.347v4.505H70.36zm12.87-2.188h3.347v6.693H83.23z" fill="#B46119"/><path d="M79.884 64.668h3.347v6.692h-3.347zm-3.346-3.475h3.346v3.475h-3.346z" fill="#B46119"/><path d="M76.538 61.193h3.346v3.475h-3.346zm-3.346-6.563h3.346v6.563h-3.346zm-3.346-6.693h3.346v6.692h-3.346zM66.5 44.59h3.346v3.347h-3.347zm-3.347-6.82H66.5v6.82h-3.346zm-3.346-6.693h3.346v6.693h-3.346zm-3.347-6.821h3.347v6.821h-3.346z" fill="#B46119"/><path d="M53.115 21.167h3.346v3.346h-3.346zM66.5 14.475h3.346v6.693h-3.347zm3.346 6.692h3.346v6.692h-3.346zm3.346 6.693h3.346v3.217h-3.346zm3.346 3.217h3.346v6.693h-3.346zm3.346 6.693h3.347v6.692h-3.347zm3.346 6.692h3.347v6.692H83.23zm3.347 6.692h3.346v6.693h-3.346zm3.346 6.693h3.346v3.346h-3.346zM53.115 11H66.5v3.346H53.115zm.515 52.38h3.346v6.693h-3.347z" fill="#B46119"/><path d="M50.283 70.073h3.346v6.693h-3.346zm-3.346 6.693h3.346v6.692h-3.346zm-3.347 6.693h3.347v3.217h-3.346z" fill="#B46119"/><path d="M40.245 86.547h3.346v10.167h-3.346zM83.23 64.54h-3.346v6.82h3.347zM16.692 96.843h-3.346v6.95h3.346zm3.373-.129h3.513v6.757h-3.514zm-3.372 6.821h3.474v6.435h-3.475z" fill="#B46119"/><path d="M23.385 90.022h3.513v6.757h-3.513z" fill="#B46119"/><path d="M26.731 83.33h3.513v6.756h-3.513z" fill="#B46119"/><path d="M30.077 76.766h3.513v6.757h-3.513z" fill="#B46119"/><path d="M33.424 70.073h3.513v6.757h-3.514z" fill="#B46119"/><path d="M36.77 63.38h3.513v6.758h-3.514zm63.32 46.59v-3.217H18.237v3.217zm6.821-13.256v-3.217h-64.35v3.217zm-6.95-15.444v-3.217H50.283v3.217z" fill="#B46119"/></svg>